<?xml version="1.0" encoding="UTF-8"?>
<svg version="1.1" viewBox="0 0 2048 1853" width="820" height="742" xmlns="http://www.w3.org/2000/svg">
<path transform="translate(732,617)" d="m0 0 9 2 12 4 12 6 60 15 20 4 62 8 37 6 45 7 72 9 36 5 73 4 31 2 6 5 7 8 10 9 17 12 19 13 14 10 19 13 16 11 11 8 28 16 22 13 16 10 28 17 11 7 16 10 22 13 11 8 16 8 25 13 18 10 16 8 23 11 24 11 22 11 18 10 23 13 4 5-1 5-6 10-3 2h-15l-13-4-33-11-13-2v10l2 8 5 6 11 9 11 8 17 10 15 7 22 8 14 6 17 10 27 18 22 13 14 9 18 12 17 12 10 8 6 7 2 5-4 6-7 6-2 1-9-1-29-13-32-16-12-5h-3l4 14 4 6 14 18 13 13 8 7 9 10 10 10 7 8 10 11 11 14 11 13 9 14 13 21 14 19 12 22 15 28 10 26 11 33 7 24 3 10 5 32 1 10 1 22v55l-2 19-6 31-8 20-8 16-4 12-8 16-13 23-7 9-8 8-12 7-7 2h-15l-9-3-6-4-5-7-3-12v-28l5-70 1-21v-27l-2-26-7-43-6-27-9-30-10-30-9-20-11-21-12-20-14-21-9-13-11-14-13-15-12-15-8-11-8-10-5-1-2 5 1 6 7 10 13 25 4 13v8l-5 5-6-1-21-10-17-11-12-9-11-9-15-14v-2h-2l-7-8-13-14-20-20-2-1v-2l-4-2-15-15-8-7-9-9-9-11-11-11v-2l-3-1-7-8-16-16-7-8-8-7-8-8-7-8-5-4h-11l12 16 14 22 3 8v6l-4 4-9 1-9-3-22-11-16-10-11-9-28-24-17-16-12-12v-2h-2l-9-11-9-10v-2h-2l-5-6-9-6-15-5-14-10-13-11-10-7v-2l-5-2-9-8-10-8-12-11-8-7-13-12-12-11-10-9-18-13-16-12-10-9-8-9-5-9-1-1-11 1-72 15-31 8-17 5h-2v76l-7 21-4 1-2 9-4 5-3 6-11 11-16 14-8 4-18 18-6 8h-2l-2 4-22 22-8 7-11 12-25 25-8 7-7 7-8 7-10 10-8 7-12 14-9 10-7 7-1 6 5 3 16 1h58l11 2 10 6 8 9 8 14 2 13-1 10-5-3-12-9-7-3h-18l-13 2-16 1-78 2-18 2-20 5-21 9-17 9-16 8-35 18-16 6-19 5h-8l-1-5 3-13 4-8 11-13 8-7 14-8 26-12 22-12 1-1 1-8-13-2-31-2h-65l1-7 7-9 10-7 14-7 3-1 15-1h114l6-2 11-9 53-53 7-8 11-12 9-11 12-13 2-3h2l2-4 13-15 10-11 7-8 7-7 6-8 3-6v-14l-4-27-5-19-6-17-8-16-6-9-7-6-7-1-5 3-4 18-6 16-14 14-13 9-16 8-28 13-29 17-40 25-21 14-13 11-6 7-2 6 2 3 12 2h57l13 3 10 6 6 7 4 8 2 7v6l-5 4-18-3h-13l-10 3-31 1-104 1-16 5-60 29-24 10-12 4h-19l-2-2v-8l4-15 8-9 10-7 17-9 28-13 16-8 6-7v-2h-15l-25 6-29 9-23 10-18 10-7 3h-9l-3-6 1-8 5-10 8-10 9-8 25-15 11-5 5-1 81-1 23-1 15-2 8-4 22-14 19-13 19-14 27-18 17-12 19-14 22-18 2-5v-9l-2-16-6-22v-3l-11-3-37-11-24-10-12-6-20-13-11-8-16-13-13-11-8-7-8-9v-7l8-8 13-9 6-2 9 1 11 9 14 14 13 10 18 11 19 11 14 9 21 10 21 8 41 11 20 7 19 7 5 1h11l7-3-2-5-14-17-10-14-2-5v-10l4-6 6-5 8-3 6 1 25 12 14 8 18 7 21 4 10 1h15l12-2 12-5 14-8 13-10 10-9 7-6 9-11 11-14 8-14 7-19 3-23v-16l-3-10-7-6-13-5-50-5-33-5-26-6-37-14-27-11-18-10-17-14-9-8-11-5-17-7zm510 210-5 8-4 11-2 1v3h2l2 5 11 8 14 9 13 11 25 17 12 9 11 7 14 10 12 8 17 13 15 10 15 12 15 11 14 10 22 18 13 10 14 11 15 13 13 11 9 7 13 11 13 10 13 11 10 8 12 11 8 7 12 10 11 7 8 4 5 1 9-5 5-6 1-6-4-8-18-20-14-16h-2v-2l-11-9-15-12-14-10-16-13-13-11-14-11-7-7-13-10-14-12-11-10-11-9-14-9-14-10-10-9-17-13-36-26-17-12-19-12-19-11-20-14-16-10-21-9z" fill="#0A0909"/>
<path transform="translate(468,126)" d="m0 0 24 1 27 3 25 5 36 12 24 9 18 6 19 4 9 1h36l27-3h5l1 1v8l-4 6-8 7-10 5-14 5-13 2 3 5 11 3 15 1 18-1-1 5-7 8-12 10-18 7-10 3h-3l7 8 10 10v2h2l7 8 7 7 7 8 14 15 9 10 12 13 14 14 7 2 22 3 21 6 31 11 48 20 36 17 14 6 12 6 17 8 21 8 14 9 5 5-1 5-5 5-4 1h-21l-14-2-26-9-26-11-26-12-26-11-24-9-27-11-28-10-21-6-25-5-40-5h-18l-36 6-23 8-16 9-10 8-10 9-4 4h-2l-2 4-9 10-6 10-3 8-5 22-2 25v11l2 24 7 43 2 11 2 36v13l-2 24-6 27-6 20-3 1-2 6-10 18-7 11-11 12-12 9-16 9-12 4-9 1-8-2-8-4-11-9-11-12-9-12-9-10-13-19-15-27-11-25-7-20-6-21-5-25-3-24-1-15v-48l1-50v-17l-1-24-4-18-13-20-9-10-13-11-13-9-14-7-18-5-46-9-31-9-33-11-21-10-2-5 7-8 14-9 23-11 17-6 32-9 54-9 8-4 10-11 7-8 17-17 11-9 24-16 17-8 26-8 15-4 36-5zm-50 99-8 3-9 8-4 7v14l7 9 8 5 11 1 9-2 6-4 6-7 3-7v-12l-4-8-7-6-3-1zm-193 28-8 2-2 5v9l2 2 56 9 36 5 9 1h14v-2l4-2 1-2v-6l-5-8-9-5-34-5-35-3z" fill="#0A0909"/>
<path transform="translate(612,429)" d="m0 0h18l33 7 20 5 25 10 40 14 24 8 44 11 51 11 35 5 35 2h27l36-5 9-3 21-10 5-6v-8l-2-12v-5l8 1 17 5 27 10 27 11 30 12 26 11 29 11 39 14 38 13 38 14 72 24 40 13 27 9 46 14 64 18 36 9 29 8 46 12 18 6 7 4 2 3-1 6-8 5-4 1h-27l-72-6-33-3-48-3-88-8-42-3-80-9-90-6-50-3-60-5-68-9-32-3-36-4-56-7-39-7-31-7-29-5-25-5-33-8-44-10-23-7-21-9-11-6-16-11-11-9-7-7-11-15-9-14-3-8v-32l4-10 7-11 8-7z" fill="#0A0909"/>
<path transform="translate(551,1237)" d="m0 0h30l18 2 3 3 2 4 4 2-4 1-22 2-17 4-15 6-23 12-18 10-8 2h-10l-7-3-1-7 8-15 7-8 10-7 11-5 12-2z" fill="#0B0A0A"/>
<path transform="translate(630,430)" d="m0 0 11 1 42 10 25 10 40 14 24 8 44 11 51 11 35 5 35 2h27l36-5 9-3 21-10 5-6v-8l-2-12v-5l8 1 17 5 27 10 27 11 30 12 26 11 29 11 39 14 38 13 38 14 72 24 40 13 27 9 46 14 64 18 36 9 29 8 46 12 18 6 2 2-9-2-19-5-16-4-13-3-23-7-22-5-16-5-16-4-10-2-19-6-27-7-18-6-22-6-10-4-25-7-12-4-7-3-14-4-10-4-21-6-41-14-29-10-17-7-52-18-16-6-16-5-15-6-16-7-10-4-34-13-13-6-20-8-13-5-16-6-13-4h-4l-1 4v18l-3 5-10 6-14 7-11 3-25 4h-50l-24-1-34-5-28-6-22-5-11-2-27-7-23-7-16-6-21-7-20-7-12-6-56-14z" fill="#565554"/>
<path transform="translate(468,126)" d="m0 0 24 1 27 3 25 5 36 12 24 9 18 6 19 4 9 1h36l27-3h5l1 4-1-2-27 4-25 1-28-2-14-3-35-12-22-9-25-8-38-6-8-1h-45l-26 4-14 2-21 5-24 7-15 8-10 7-14 9-10 9-19 19-8 9-6 7-9 5-15 3-35 5-17 4-23 7-12 5-20 8-14 9-9 8 2 4 17 9-2 1-19-9-2-5 7-8 14-9 23-11 17-6 32-9 54-9 8-4 10-11 7-8 17-17 11-9 24-16 17-8 26-8 15-4 36-5z" fill="#575655"/>
<path transform="translate(817,927)" d="m0 0 5 5 8 16 7 19 6 25 3 18v18l-6 10-12 14-8 8-9 11-9 10-7 8-10 11-7 9h-2l-2 4-8 9-7 8-64 64-12 6h-120l-9 1-12 5-14 10-6 8-1 4 22-2h38l7 1 21 1 16 3v1l-42-3h-65l1-7 7-9 10-7 14-7 3-1 15-1h114l6-2 11-9 53-53 7-8 11-12 9-11 12-13 2-3h2l2-4 13-15 10-11 7-8 7-7 6-8 3-6v-14l-4-27-5-19-6-17-8-16-3-5z" fill="#5A5958"/>
<path transform="translate(1214,521)" d="m0 0 10 3 50 17 38 14 72 24 40 13 27 9 46 14 64 18 36 9 29 8 46 12 18 6 2 2-9-2-19-5-16-4-13-3-23-7-22-5-16-5-16-4-10-2-19-6-27-7-18-6-22-6-10-4-25-7-12-4-7-3-14-4-10-4-21-6-41-14-29-10-17-7-52-18-10-4z" fill="#575655"/>
<path transform="translate(1248,729)" d="m0 0 5 2 15 11 24 16 22 16 13 8 23 13 20 12 16 10 28 17 11 7 16 10 22 13 11 8 16 8 25 13 18 10 16 8 23 11 24 11 22 11 18 10 23 13 4 5-1 5-6 10-3 2h-5l3-2 5-5 5-7-2-5-12-7-16-8-22-12-16-8-28-13-23-11-17-9-11-6-42-22-11-8-12-7-18-11-15-9-11-7-11-6-25-16-30-18-11-6-16-10-12-9-16-11-17-12-14-10z" fill="#555453"/>
<path transform="translate(685,905)" d="m0 0 3 3 3 7 6 31v7l-5 9-11 10h-2v2l-10 7-10 8-19 13-8 6-16 10-11 8-18 13-10 7-22 14-9 6-8 3-27 2-84 1-12 2-21 11-13 8-12 11-7 10-2 5-1 11 1 1h9l-2 2h-9l-3-6 1-8 5-10 8-10 9-8 25-15 11-5 5-1 81-1 23-1 15-2 8-4 22-14 19-13 19-14 27-18 17-12 19-14 22-18 2-5v-9l-2-16-6-22z" fill="#545352"/>
<path transform="translate(1e3 719)" d="m0 0 2 2 2 7v8l-2 11-2 16-6 17-9 17-8 11-2 3h-2l-2 5-16 16-11 9-13 10-15 8-12 4-13 1h-12l-20-2-15-4-12-5-17-9-26-13-10 2-7 6-3 4-1 9h-1v-10l4-6 6-5 8-3 6 1 25 12 14 8 18 7 21 4 10 1h15l12-2 12-5 14-8 13-10 10-9 7-6 9-11 11-14 8-14 7-19 3-23z" fill="#5C5C5B"/>
<path transform="translate(732,617)" d="m0 0 9 2 12 4 12 6 60 15 20 4 62 8 37 6 45 7 8 1v1h-9l-33-4-40-7-37-5-34-4-33-7-23-6-12-3-4 1 9 9 11 8 17 9 20 8-3 1-22-9-18-10-17-14-9-8-11-5-17-7z" fill="#525150"/>
<path transform="translate(1033,453)" d="m0 0 8 1 17 5 27 10 27 11 30 12 26 11 45 17 1 2-9-2-13-4-15-6-16-7-10-4-34-13-13-6-20-8-13-5-16-6-13-4h-4l-1 4v18l-3 5-10 6-14 7-11 3-25 4h-10l1-2 35-5 9-3 21-10 5-6v-8l-2-12z" fill="#585756"/>
<path transform="translate(330,166)" d="m0 0m-1 1m-2 1 2 1-31 31-8 9-6 7-9 5-15 3-35 5-17 4-23 7-12 5-20 8-14 9-9 8 2 4 17 9-2 1-19-9-2-5 7-8 14-9 23-11 17-6 32-9 54-9 8-4 10-11 7-8 17-17 11-9z" fill="#595857"/>
<path transform="translate(755,335)" d="m0 0 29 4 21 6 31 11 48 20 36 17 14 6 12 6 17 8 21 8 8 5-2 1-10-5-19-6-32-16-23-10-15-7-13-6-20-8-21-9-25-9-22-8-13-2-16-2-6-3z" fill="#5A5958"/>
<path transform="translate(592,817)" d="m0 0 4 2 19 12 10 6 11 6 14 9 21 10 21 8 41 11 20 7 19 7 5 1h11l7-3-2-5-6-7 1-2 5 5v2h2l2 4v5l-3 3-5 1h-13l-12-3-23-9-23-6-21-5-18-7-12-5-17-8-14-10-12-7-12-6-14-10-6-5z" fill="#585756"/>
<path transform="translate(1485,612)" d="m0 0 16 4 60 17 36 9 29 8 46 12 18 6 2 2-9-2-19-5-16-4-13-3-23-7-22-5-16-5-16-4-10-2-19-6-27-7-17-6z" fill="#565554"/>
<path transform="translate(340,376)" d="m0 0 2 2 5 18v35l-1 49v78h-1l-2-25v-48l1-50v-17l-1-24-3-15z" fill="#636261"/>
<path transform="translate(998,671)" d="m0 0 16 1 62 8 21 3 73 4 31 2 5 5-11-3-62-3-39-3-39-5-34-4-23-4z" fill="#565554"/>
<path transform="translate(685,905)" d="m0 0 3 3 3 7 6 31v7l-5 9-11 10h-2v2l-10 7-10 8-19 13-8 6-14 9-2-1 8-7 22-15 19-14 14-11 12-10 2-5v-9l-2-16-6-22z" fill="#5C5C5B"/>
<path transform="translate(1581,992)" d="m0 0 8 6 9 8 10 7 17 10 15 7 22 8 14 6 17 10 27 18 13 8-2 1-13-7-26-17-15-9-20-9-23-8-21-11-17-12-15-14z" fill="#585756"/>
<path transform="translate(568,1197)" d="m0 0h13l1 2-28 2-12 5-14 10-6 8-1 4 22-2h38l7 1 21 1 16 3v1l-42-3h-65l1-7 7-9 10-7 14-7 3-1z" fill="#61605F"/>
<path transform="translate(1539,907)" d="m0 0 6 2 29 14 20 9 24 12 18 10 23 13 4 5-1 5-6 10-3 2h-5l3-2 5-5 5-7-2-5-12-7-16-8-22-12-16-8-28-13-23-11-3-2z" fill="#575655"/>
<path transform="translate(551,1237)" d="m0 0h30l18 2 3 3-1 2-8-4h-61l-9 2-16 7-10 9-6 9-4 9v5l5 1h12l7-1-2 2-8 2h-10l-7-3-1-7 8-15 7-8 10-7 11-5 12-2z" fill="#5F5F5E"/>
<path transform="translate(575,146)" d="m0 0 10 3 30 11 20 5 15 2h36l27-3h5l1 4-1-2-27 4-25 1-28-2-14-3-35-12-14-6z" fill="#646463"/>
<path transform="translate(1511,1062)" d="m0 0 4 2 16 13 11 9 16 13 12 11 8 7 12 10 11 7 8 4 5 1 9-5 4-5 1-6-2-7 3 3 1 3v7l-4 6-9 6h-8l-10-4-12-9-12-11-11-9-12-11-14-10-13-12-11-9z" fill="#555453"/>
<path transform="translate(627,1233)" d="m0 0 2 2v6l-8 7-12 6-15 8-17 7-12 7-8 7-6 8h-2l-6 12-2 7-1 8h11v1l-5 1h-8l-1-5 3-13 4-8 11-13 8-7 14-8 26-12 22-12 1-1z" fill="#595958"/>
<path transform="translate(785,828)" d="m0 0 6 1 25 12 14 8 18 7 21 4 25 2-3 2h-12l-20-2-15-4-12-5-17-9-26-13-10 2-7 6-3 4-1 9h-1v-10l4-6 6-5z" fill="#585756"/>
<path transform="translate(484,1097)" d="m0 0 1 4-4 4-9 6-13 5-13 8-12 4-18 10-12 11-4 9-3 16-2-1v-8l4-15 8-9 10-7 17-9 28-13 16-8z" fill="#61605F"/>
<path transform="translate(208,230)" d="m0 0m-4 1h4v2l-23 7-12 5-20 8-14 9-9 8 2 4 17 9-2 1-19-9-2-5 7-8 14-9 23-11 17-6z" fill="#5A5958"/>
<path transform="translate(1033,453)" d="m0 0 8 1 11 3v2l-8-1-6-1-1 4v18l-3 5-10 6-14 7-11 3-25 4h-10l1-2 35-5 9-3 21-10 5-6v-8l-2-12z" fill="#605F5E"/>
<path transform="translate(732,617)" d="m0 0 9 2 12 4 12 6 16 4 1 2h-10l6 7 12 10 19 10 20 8-3 1-22-9-18-10-17-14-9-8-11-5-17-7z" fill="#5E5D5C"/>
<path transform="translate(334,268)" d="m0 0 4 4 1 3v7l-5 5-2 1h-12l-31-4-22-3-28-5-16-3v-1h8l55 9 32 4 14 1v-2l4-4v-6z" fill="#545352"/>
<path transform="translate(618,1013)" d="m0 0m-1 1m-2 1 2 1-5 5-11 8-17 12-10 7-19 12-9 6-6 1v-2l11-6 33-22 28-20z" fill="#626160"/>
<path transform="translate(687,1196)" d="m0 0 1 2-5 2h-101v-2l100-1z" fill="#525150"/>
<path transform="translate(612,429)" d="m0 0h18v1l-15 1-9 6-9 14-3 9-1 24 2 10 6 11-1 2-6-9-3-8v-32l4-10 7-11 8-7z" fill="#555453"/>
<path transform="translate(1458,862)" d="m0 0 6 3 10 7 16 8 25 13 18 10 6 4-3 1-17-9-14-8-17-9-16-8-11-8-3-2z" fill="#555453"/>
<path transform="translate(1485,612)" d="m0 0 16 4 60 17 6 2v1h-7l-15-4-24-7-22-6-14-5z" fill="#525150"/>
<path transform="translate(609,1084)" d="m0 0h65l13 3 7 4-2 1-13-4-63-1-7-2z" fill="#5F5E5D"/>
<path transform="translate(1581,992)" d="m0 0 8 6 9 8 10 7 17 10 15 7 11 4 1 2-9-2-13-5-17-9-17-12-15-14z" fill="#565554"/>
<path transform="translate(386,1086)" d="m0 0m-2 1 2 1-5 5-12 11-7 10-2 5-1 11 1 1h9l-2 2h-9l-3-6 1-8 5-10 8-10 9-8z" fill="#656463"/>
<path transform="translate(508,1245)" d="m0 0m-2 1 2 1-5 5-10 11-6 13v5l5 1h12l7-1-2 2-8 2h-10l-7-3-1-7 8-15 7-8z" fill="#636261"/>
<path transform="translate(1e3 719)" d="m0 0 2 2 2 7v8l-2 11-2 16-6 17-5 10h-2l2-6 8-21 3-23z" fill="#5B5A59"/>
<path transform="translate(785,828)" d="m0 0 6 1 25 12 9 6-3 1-17-9-16-8-10 2-7 6-3 4-1 9h-1v-10l4-6 6-5z" fill="#5C5B5A"/>
<path transform="translate(503,129)" d="m0 0h9l28 5 26 8 9 4-3 1-25-8-5-2-38-6z" fill="#555453"/>
<path transform="translate(879,498)" d="m0 0 15 1 23 2 47 2v1h-40l-24-1-21-3z" fill="#555453"/>
<path transform="translate(1488,1144)" d="m0 0 4 2 9 10 13 15 12 11 14 14 2 1v2l4 2v3l-2-1v-2l-4-2-15-15-8-7-9-9-9-11-11-11z" fill="#565554"/>
<path transform="translate(340,376)" d="m0 0 2 2 5 18v35h-2l-2-37-3-15z" fill="#5F5E5D"/>
<path transform="translate(1160,500)" d="m0 0 53 20 1 2-9-2-13-4-15-6-16-7z" fill="#5B5A59"/>
<path transform="translate(419,1133)" d="m0 0m-2 1h2l-1 3-9 7-7 8-3 12-2 10-2-1v-8l4-15 8-9z" fill="#5E5D5C"/>
<path transform="translate(928,660)" d="m0 0 11 1 36 6 22 3v1h-9l-33-4-27-5z" fill="#565554"/>
<path transform="translate(685,905)" d="m0 0 3 3 3 7 6 31v7l-2 4h-2v-12l-2-16-6-22z" fill="#565554"/>
<path transform="translate(376,142)" d="m0 0h3v2l-15 5-13 7-10 7-11 7-2-1 8-7 16-10 15-7z" fill="#545352"/>
<path transform="translate(998,671)" d="m0 0 16 1 47 6v2l-16-1-36-5-11-2z" fill="#595857"/>
<path transform="translate(782,634)" d="m0 0 11 2 37 9 5 1v2l-9-1-15-3-23-6-6-2z" fill="#5F5E5D"/>
<path transform="translate(223,272)" d="m0 0h8l55 9v2l-14-1-33-6-16-3z" fill="#575655"/>
<path transform="translate(1738,1084)" d="m0 0 5 2 18 11 23 16 12 9h-3l-12-8-19-13-24-16z" fill="#535251"/>
<path transform="translate(630,430)" d="m0 0 11 1 42 10 3 3-8-1-48-12z" fill="#535251"/>
<path transform="translate(713,164)" d="m0 0h5l1 4-1-2-27 4-25 1-5-1v-1l44-4z" fill="#605F5E"/>
<path transform="translate(799,914)" d="m0 0 7 1 8 7-1 2-8-6-7 1-3 2-4 18-3 8-1-4 3-11 2-12 4-5z" fill="#5B5A59"/>
<path transform="translate(552,787)" d="m0 0 9 1 1 2h-12l-8 5-13 11-1 1v6l3 4-1 2-5-6v-7l8-8 13-9z" fill="#585756"/>
<path transform="translate(1240,826)" d="m0 0h9l24 11 4 4-5-2-23-10-7-1-6 12-3 7-2-1 6-16 1-3z" fill="#61605F"/>
<path transform="translate(468,126)" d="m0 0 24 1 11 1v2l-51-1v-2z" fill="#5D5C5B"/>
<path transform="translate(627,1233)" d="m0 0 2 2v6l-8 7-12 6-15 8-3-1 8-5 25-13 2-2z" fill="#525150"/>
<path transform="translate(841,992)" d="m0 0h2l3 18v18l-5 8-2-1 4-8v-14l-2-16z" fill="#595857"/>
<path transform="translate(419,1070)" d="m0 0m-5 1h5v2l-10 4-15 8-7 4-2-1 6-5 16-9z" fill="#575655"/>
<path transform="translate(708,1115)" d="m0 0h1v6l-5 4-18-3h-16l2-2 3-1h9l18 3v-2l5-1z" fill="#555453"/>
<path transform="translate(592,817)" d="m0 0 4 2 19 12 10 6 9 5 1 2-5-2-14-7-11-7-11-8z" fill="#555554"/>
<path transform="translate(835,647)" d="m0 0 10 1 32 4v2h-8l-25-3-9-2z" fill="#545352"/>
<path transform="translate(674,204)" d="m0 0 18 3 25-1-1 4-33-1-9-4z" fill="#666564"/>
<path transform="translate(1033,453)" d="m0 0 8 1 11 3v2l-8-1-6-1-1 4v9h-2l-2-12z" fill="#676766"/>
<path transform="translate(1452,602)" d="m0 0 9 2 23 7v3l-22-6-10-4z" fill="#5B5A59"/>
<path transform="translate(643,996)" d="m0 0m-1 1m-2 1 2 1-5 5-5 4-14 9-2-1 8-7z" fill="#595857"/>
<path transform="translate(693,957)" d="m0 0 1 2-7 8-6 5h-2v2l-6 4-2-1 4-5 11-9z" fill="#5B5A59"/>
<path transform="translate(755,335)" d="m0 0 29 4 6 2-4 1-25-3-6-3z" fill="#595857"/>
<path transform="translate(602,1244)" d="m0 0 2 2 4 2-4 1-22 2-10 1 3-2 12-3 15-1z" fill="#797877"/>
<path transform="translate(1647,961)" d="m0 0 5 2 9 6 2 3-1 5-6 10-3 2h-5l3-2 5-5 5-7-2-5-12-7z" fill="#605F5E"/>
<path transform="translate(484,1097)" d="m0 0 1 4-4 4-9 6-13 5h-3l8-5 14-7z" fill="#575655"/>
<path transform="translate(1036,470)" d="m0 0h1v9l-3 5-10 6-11 6-3-1 8-5 13-7 4-5z" fill="#545352"/>
<path transform="translate(543,1298)" d="m0 0 1 2-3 10-1 8h11v1l-5 1h-8l-1-5 3-13z" fill="#696867"/>
<path transform="translate(448,942)" d="m0 0h9l10 1v1h-60v-1z" fill="#FEFFFE"/>
<path transform="translate(1329,922)" d="m0 0 5 2 10 7 19 14 2 3-4-2-13-9-18-13z" fill="#595857"/>
<path transform="translate(1e3 719)" d="m0 0 2 2 2 7v8l-3 13h-1z" fill="#545352"/>
<path transform="translate(236,224)" d="m0 0 2 1-1 2-26 5-3-1 7-3z" fill="#575655"/>
<path transform="translate(732,617)" d="m0 0 9 2 12 4 10 5v3l-5-2-14-6-12-5z" fill="#FEFFFE"/>
<path transform="translate(798,833)" d="m0 0 6 2 17 9 4 4-4-1-16-8-7-4z" fill="#656463"/>
<path transform="translate(442,261)" d="m0 0v3l-4 5-9 4h-13l-4-2h11l9-2 6-4z" fill="#525150"/>
<path transform="translate(562,1052)" d="m0 0m-2 1 2 1-5 5-11 7-6 1v-2l11-6z" fill="#605F5E"/>
<path transform="translate(1662,660)" d="m0 0 10 2 18 6 2 2-9-2-19-5-2-1z" fill="#575756"/>
<path transform="translate(523,1239)" d="m0 0h9v1l-9 2-14 6-2-1 5-4z" fill="#5B5B5A"/>
<path transform="translate(1451,1013)" d="m0 0 5 2 12 10 11 9h-3l-11-9-8-6-6-5z" fill="#5B5B5A"/>
<path transform="translate(261,278)" d="m0 0 12 1 13 2v2l-14-1-11-2z" fill="#5F5E5D"/>
<path transform="translate(1488,1144)" d="m0 0 4 2 9 10 8 9-1 3-9-11-11-11z" fill="#555453"/>
<path transform="translate(1435,848)" d="m0 0 11 6 12 7v2l-4-1-19-12z" fill="#605F5E"/>
<path transform="translate(685,905)" d="m0 0 3 3 3 7 1 11-2-1-5-18z" fill="#595857"/>
<path transform="translate(455,1115)" d="m0 0 2 1-4 4-7 4-4-1 3-3z" fill="#6E6D6C"/>
<path transform="translate(1246,863)" d="m0 0 5 2 10 7 7 6h-3l-16-12z" fill="#5A5958"/>
<path transform="translate(508,1281)" d="m0 0 3 1-10 3h-10l-3-1v-2h16z" fill="#858584"/>
<path transform="translate(674,204)" d="m0 0 25 4v1h-16l-9-4z" fill="#565554"/>
<path transform="translate(1626,1116)" d="m0 0 3 3 1 3v7l-4 6-4 2 6-10-1-7z" fill="#5B5A59"/>
<path transform="translate(590,1260)" d="m0 0 2 1-3 3-9 4-3-1 6-4z" fill="#666564"/>
<path transform="translate(1661,975)" d="m0 0 1 2-6 10-3 2h-5l3-2 5-5z" fill="#525150"/>
<path transform="translate(1585,1243)" d="m0 0 4 2 9 10h-3l-7-7v-2h-2z" fill="#525150"/>
<path transform="translate(923,1022)" d="m0 0 2 1-7 7-6 5-3-1 11-9z" fill="#575655"/>
<path transform="translate(879,498)" d="m0 0 15 1-1 2h-8l-6-1z" fill="#636261"/>
<path transform="translate(771,858)" d="m0 0 5 5 7 9-1 2-9-11z" fill="#525150"/>
<path transform="translate(729,616)" d="m0 0 3 1z" fill="#FEFFFE"/>
</svg>
