<?xml version="1.0" encoding="UTF-8"?>
<svg version="1.1" viewBox="0 0 2048 1826" width="720" height="642" xmlns="http://www.w3.org/2000/svg">
<path transform="translate(680,557)" d="m0 0 10 2 25 7 17 8 34 9 38 9 30 5 63 8 30 5 22 4 105 14 50 6 28 3 63 3 24 1 9 2 8 6 18 18 14 10 17 12 19 13 17 12 19 13 17 12 16 10 15 9 16 9 22 13 19 12 25 15 22 14 18 11 25 16 24 13 16 8 29 16 16 8 31 15 26 12 24 12 41 23 9 7 2 2-1 7-7 10-6 5-3 1h-8l-20-6-34-12-16-3v15l4 7 8 8 10 8 21 14 22 11 25 9 23 10 18 11 30 20 15 8 25 16 21 14 17 12 13 10 7 8 2 5v6l-6 8-4 3-3 1h-10l-12-4-26-12-42-21-8-3 5 15 12 16 9 11 48 48 7 8 11 12 9 11 13 16 7 10 11 18 10 16 9 12 14 22 13 24 12 22 6 15 8 21 10 30 4 15 5 18 7 36 2 16 1 15v72l-2 23-9 43-8 20-8 17-10 25-9 16-12 19-9 10-10 9-12 7-6 2-11 1-12-2-12-6-7-6-5-11-3-12v-27l2-24 4-43 1-20v-63l-3-24-10-54-6-26-13-41-7-21-14-29-11-21-15-24-15-23-9-13-13-15-8-10-10-12-12-16-8-11-8-7-3-1 1 9 9 16 6 10 9 17 5 17 1 8-3 5-7 1-10-2-16-8-17-10-16-12-10-8-14-12-19-19-7-8-11-12-19-19-8-7-24-24-8-7-13-14-7-8-12-13-62-62-8-4h-3l2 5 7 9 10 15 9 15 4 10-1 7-7 6h-10l-10-4-26-13-19-12-11-9-13-10-10-8-14-12-10-10-7-8-12-12-7-8-11-13-10-11-10-8-5-3-10-2-11-6-14-10-11-10-14-11-11-10-11-8-11-10-8-7-13-12-10-9-8-7-9-9-19-14-17-13-13-10-9-8-10-14-4-6-9 1-85 18-24 6-29 9-1 4v65l-1 19-5 15-8 16-7 12-9 10-7 7-8 7-13 11-10 8-12 11-17 17-7 8-14 15-8 7-10 10-8 7-31 31-8 7-23 23-8 7-13 13-9 11-11 12-5 8 13 2h75l13 2 12 6 8 7 9 13 5 11 2 7v17l-2 1-9-5-8-6-10-5-7-2h-8l-15 3-11 1-59 1-47 2-17 2-25 7-17 7-14 8-30 15-41 21-15 5-16 4-14 1-3-2v-11l4-13 6-9 9-10 9-9 10-6 10-5 16-7 14-7 4-3v-3h7l9-5 4-4 1-4-14-3-23-1-19-2h-29l-34 2h-7l-1-2 4-11 7-8 12-9 14-7 9-2 145-1 9-6 10-9 64-64 1-2h2l2-4 9-10 9-11 13-14 7-8 9-10 9-11 9-10 7-8 13-14 8-12v-18l-6-32-4-15-8-23-8-16-6-9-8-7-6-2-7 3-7 30-4 9-7 8-8 8-16 11-12 6-16 7-22 10-24 14-22 14-19 12-17 10-19 13-14 12-10 10-1 4 9 5 7 1h23l36-1 14 2 11 4 10 8 7 11 3 8v11l-4 4-2 1-10-1-16-4h-6l-10 4-9 2-46 1h-90l-17 2-16 5-16 8-25 13-18 8-17 8-25 10-11 2h-19l-3-4v-7l3-15 4-8 7-7 12-9 19-10 16-7 16-8 10-4 12-8 3-4h-18l-22 5-29 9-16 6-22 10-15 9-9 3-9 1-5-2-1-2v-9l3-12 10-14 9-9 15-10 16-9 15-7 3-1 13-1h85l35-3 11-4 18-11 15-10 16-11 18-13 37-25 14-10 18-13 14-11 14-12 5-8-1-17-7-32-2-5-24-8-25-7-25-10-13-6-13-7-17-11-12-9-16-13-13-10-13-11-8-9-2-4v-9l7-8 14-11 7-3h11l10 5 12 11 15 15 18 13 19 11 16 9 11 8 17 9 25 10 19 6 44 12 16 6 11 5 11 3h18l7-2-14-17-12-15-8-14v-11l4-7 9-7 7-3h8l23 11 21 11 21 9 12 3 13 2 23 1 14-1 10-3 23-12 13-10 13-11 14-14 11-14 10-14 8-17 5-13 2-9 2-20v-18l-5-10-7-6-13-5-12-2-60-5-31-6-28-7-19-8-19-7-29-12-16-9-19-14-14-14-12-6-20-7-12-6zm595 244-6 12-5 12 1 4 10 8 17 12 18 14 13 9 18 13 31 21 20 14 15 11 14 10 17 12 21 16 11 8 19 14 14 11 10 9 14 11 17 14 11 9 13 11 11 9 12 11 11 9 13 11 16 12 11 10 11 9 8 8 14 11 8 5 8 3h9l8-6 4-6v-7l-6-8-11-13-12-13-9-10-13-12-28-22-14-10-14-11-13-11-11-9-12-11-10-8-11-9-10-9-8-7-13-11-13-9-21-14-16-13-13-11-15-11-13-9-16-12-25-17-22-14-15-8-15-11-13-9-17-10-20-9-6-3z" fill="#090808"/>
<path transform="translate(391,1)" d="m0 0 29 1 37 5 21 4 37 12 25 10 33 11 15 3 20 2h24l20-2 16-2h11l1 1v9l-4 8-9 8-16 8-14 5-14 3 9 4 11 2h17l19-1 1 2-8 11-11 11-11 7-22 7-8 2 9 9 7 8 9 10 12 12 7 8 24 26 7 7 7 8 19 19 10 2 25 3 24 8 37 13 30 13 22 9 29 14 19 8 15 8 24 11 19 7 17 9 9 8 2 3v6l-6 5-9 2-17 1-17-2-17-5-28-11-19-8-20-9-26-12-27-10-31-13-30-11-15-6-49-12-33-4-13-1h-24l-19 2-19 4-30 11-15 9-13 10-12 11-9 10-11 15-6 12-6 23-4 26v19l4 30 8 46 2 19 1 24v31l-2 22-7 34-5 16-11 21-10 16-8 11-14 14-16 11-14 7-12 3h-18l-9-3-12-9-13-13-11-14-9-11-8-10-13-20-13-23-10-21-10-25-9-29-8-41-2-21-1-30v-19l1-43v-76l-2-14-4-12-9-16-11-14-11-11-19-14-9-6-16-6-26-6-28-5-42-11-35-12-16-6-17-9-3-3 1-6 12-10 16-10 23-10 21-8 30-8 36-6 25-4 12-5 5-5 9-11 11-12 9-9 11-9 8-7 15-10 15-9 12-6 27-9 25-6 41-6zm-51 114-12 6-8 6-7 11-2 7 5 10 8 8 7 3h16l8-5 7-8 4-8v-14l-4-7-9-8-3-1zm-223 33-8 3-5 6-1 5 3 3 20 4 47 8 47 6h16l4-4 1-4-2-9-5-5-18-5-22-4-27-3-15-1z" fill="#090808"/>
<path transform="translate(556,345)" d="m0 0h18l15 3 42 10 15 5 11 5 28 10 35 12 18 6 38 10 52 11 28 6 20 3 28 2h61l30-4 12-4 17-9 9-5 3-5v-9l-3-14v-5l9 1 19 5 26 9 29 12 45 18 22 9 16 7 30 11 20 7 25 9 44 15 27 11 43 14 36 12 43 14 55 18 23 7 62 18 25 7 43 11 34 9 21 6 34 9 20 6 8 5 4 5v6l-4 5-5 2-6 1h-41l-36-3-57-5-95-6-53-6-104-8-44-6-38-3-60-4-37-3-40-2-77-6-57-8-38-4-44-4-43-6-45-6-77-16-40-7-35-9-22-4-21-5-38-10-33-14-18-11-17-13-10-9-10-11-14-21-6-12-1-4v-36l3-9 10-15 6-7z" fill="#090808"/>
<path transform="translate(481,1266)" d="m0 0h36l18 1 10 5 4 4-1 3-10 2-21 5-26 8-30 15-11 7-12 5-4 1h-19l-5-2-2-2 1-9 5-12 9-11 8-7 14-7 11-4z" fill="#0E0D0D"/>
<path transform="translate(556,457)" d="m0 0 7 6 10 9 17 12 13 8 17 8 20 7 19 6 40 9 33 7 27 7 22 4 35 6 30 7 44 8 30 4 43 5 45 4 73 9 37 5 39 3 29 2 38 1 43 4 42 3 57 5 28 4 93 7 39 4 28 3 39 3 36 2 126 10h18l14-3 4-2 1-7 1-3 3 4v6l-4 5-5 2-6 1h-41l-36-3-57-5-95-6-53-6-104-8-44-6-38-3-60-4-37-3-40-2-77-6-57-8-38-4-44-4-43-6-45-6-77-16-40-7-35-9-22-4-21-5-38-10-33-14-18-11-17-13-10-9-5-5z" fill="#FEFFFE"/>
<path transform="translate(628,261)" d="m0 0h11l33 3 29 5 37 9 44 16 36 15 22 8 20 9 24 11 38 16 24 8 17 3h21l9-2 4-2 1-6-7-8-1-2 5 2 8 9v6l-6 5-9 2-17 1-17-2-17-5-28-11-19-8-20-9-26-12-27-10-31-13-30-11-15-6-49-12-33-4-13-1h-24l-19 2-19 4-30 11-15 9-13 10-12 11-9 10-11 15-6 12-6 23-4 26v19l4 30 8 46 2 19 1 24v31l-2 22-7 34-5 16-11 21-10 16-8 11-14 14-16 11-14 7-12 3h-18l-9-3-12-9-13-13 1-2 11 11 11 8 5 3 4 1h20l16-6 11-6 13-10 9-8 11-14 8-13 10-18 5-10 5-17 5-26 2-17 1-12v-29l-3-36-4-25-6-36-2-18v-24l4-26 7-24 9-16 11-12 7-8 8-8 15-11 14-8 19-8 16-5 23-4z" fill="#FEFFFE"/>
<path transform="translate(1098,839)" d="m0 0 5 2 1 5-3-3-9 1-85 18-24 6-29 9-1 4v65l-1 19-5 15-8 16-7 12-9 10-7 7-8 7-13 11-10 8-12 11-17 17-7 8-14 15-8 7-10 10-8 7-31 31-8 7-23 23-8 7-13 13-9 11-11 12-4 6-2-1 1-4 8-10 9-10 12-14 18-18 12-11 8-7 15-15 8-7 9-10 8-7 41-41 7-8 9-10 4-5 8-7 11-10 13-10 13-12 8-7 8-9 9-16 6-12 4-16 1-84 9-4 34-10 26-6 45-9 28-6z" fill="#FEFFFE"/>
<path transform="translate(1992,1382)" d="m0 0 3 3 8 18 9 24 10 30 4 15 5 18 7 36 2 16 1 15v72l-2 23-9 43-8 20-8 17-10 25-9 16-12 19-9 10-10 9-12 7-6 2-11 1-12-2-12-6-7-6 1-2 6 5 11 5 13 2 10-1 14-7 9-7 9-9 10-15 12-20 14-35 8-15 5-15 7-32 5-32 1-20v-27l-2-36-5-35-6-27-10-36-11-32-11-27z" fill="#FEFFFE"/>
<path transform="translate(657,1108)" d="m0 0 5 5 5 12v11l-4 4-2 1-10-1-16-4h-6l-10 4-9 2-46 1h-90l-17 2-16 5-16 8-25 13-18 8-17 8-25 10-11 2h-19l-2-3h16l17-4 18-7 30-14 24-11 14-8 19-8 16-4h59l85-1 16-3 2-2h15l11 3h10l4-3v-8l-4-11-3-5z" fill="#FEFFFE"/>
<path transform="translate(767,902)" d="m0 0h7l8 6 5 5-1 2-8-7-6-2-7 3-7 30-4 9-7 8-8 8-16 11-12 6-16 7-22 10-24 14-22 14-19 12-17 10-19 13-14 12-10 10-2 4h-2l1-5 9-11 10-9 13-10 18-11 20-12 20-13 21-13 20-11 24-11 16-7 19-12 12-12 7-11 4-16 2-15 5-5z" fill="#FEFFFE"/>
<path transform="translate(788,1283)" d="m0 0h15l13 5 5 5-5-2-14-5h-8l-15 3-11 1-59 1-47 2-17 2-25 7-17 7-14 8-30 15-41 21-15 5-16 4-14 1-3-3 17-2 21-6 21-9 20-11 23-11 28-15 24-10 17-4 6-1 68-3 54-1z" fill="#FEFFFE"/>
<path transform="translate(680,557)" d="m0 0 10 2 25 7 17 8-3 1 7 9v2l4 2 7 6 16 11 23 11 52 20 16 5 27 6 28 4 54 5 12 2 10 5 8 8-1 2-8-7-13-5-12-2-60-5-31-6-28-7-19-8-19-7-29-12-16-9-19-14-14-14-12-6-20-7-12-6z" fill="#FEFFFE"/>
<path transform="translate(1374,1078)" d="m0 0 4 2 5 5v2l4 2 7 7 11 9 15 12 13 10 15 10 23 12 15 7h11l6-5v-6l-8-16-12-19-9-12-3-6 1-1h9l6 4 27 27-1 2-27-27-8-4h-3l2 5 7 9 10 15 9 15 4 10-1 7-7 6h-10l-10-4-26-13-19-12-11-9-13-10-10-8-14-12-10-10z" fill="#FEFFFE"/>
<path transform="translate(392,1104)" d="m0 0h15l1 3-17 1-22 5-29 9-16 6-22 10-15 9-9 3-9 1-5-2v-2h11l12-5 22-12 24-10 24-8 24-6z" fill="#FEFFFE"/>
<path transform="translate(1339,836)" d="m0 0 5 2 10 6 18 10 12 8 10 7 12 8 13 10 17 12 11 8 10 8 13 11 17 13 13 8 14 10 11 9 12 11 1 2-4-2-12-11-16-12-16-10-12-9-11-9-13-11-15-11-13-9-16-12-25-17-22-14-15-8-9-7z" fill="#FEFFFE"/>
<path transform="translate(542,1278)" d="m0 0h6l-3 2-17 3-31 9-12 5-24 12-11 7-12 5-4 1h-19l-5-2v-1h20l9-2 10-5 17-10 15-8 15-6 18-6 9-2z" fill="#FEFFFE"/>
<path transform="translate(480,1255)" d="m0 0h38l13 2 26 1 11 2 2 4-11-2-23-1-19-2h-29l-34 2h-7l-1-2 2-3h15z" fill="#FEFFFE"/>
<path transform="translate(1210,941)" d="m0 0 4 2 12 11 13 10 11 9 28 24 13 9 14 8 9 1 8 6 11 10-1 2-10-9-8-5-10-2-11-6-14-10-11-10-14-11-11-10-11-8-11-10-8-7z" fill="#FEFFFE"/>
<path transform="translate(507,830)" d="m0 0 5 2 12 9 15 9 14 8 27 11 25 8 20 5 10 4 2 3-11-3-38-11-25-10-13-6-13-7-17-11-12-9z" fill="#FEFFFE"/>
<path transform="translate(1270,800)" d="m0 0h10l16 7 18 10 12 8 13 10h-3l-16-11-17-10-20-9-6-3h-2l-10 23-2 3-3-6 6-10 3-11z" fill="#FEFFFE"/>
<path transform="translate(115,146)" d="m0 0h30l43 4 33 5 10 3 3 3-10-2-23-5-34-4-15-1h-35l-8 3-4 5-2 5h-1l1-9 4-5z" fill="#FEFFFE"/>
<path transform="translate(677,45)" d="m0 0 3 1v9l-4 8-9 8-16 8-14 5-16 3 3-4 26-8 12-6 9-7 4-5 2-10z" fill="#FEFFFE"/>
<path transform="translate(675,92)" d="m0 0 5 1-4 7-11 12-8 7-12 6-22 6h-4v-3l17-4 16-7 8-6 5-4 7-8 3-4z" fill="#FEFFFE"/>
<path transform="translate(337,113)" d="m0 0h12l4 2-3 1h-10l-12 6-7 5-7 11-2 7 5 10 6 7-5-2-6-8-2-5v-9l5-10 8-8 8-5z" fill="#FEFFFE"/>
<path transform="translate(1231,646)" d="m0 0 4 2 19 19 28 20h-3l-12-8-16-12-12-11-8-9z" fill="#FEFFFE"/>
<path transform="translate(824,1259)" d="m0 0 4 4 8 16 2 7v17l-2 1-4-2 3-2v-11l-4-15-7-13z" fill="#FEFFFE"/>
<path transform="translate(1122,868)" d="m0 0 4 2 28 21 13 10 6 5h-3l-17-13-16-12-13-10z" fill="#FEFFFE"/>
<path transform="translate(1767,1328)" d="m0 0h1l1 8-3 5-7 1-10-2-6-3 2-1 6 2h14z" fill="#FEFFFE"/>
<path transform="translate(1495,996)" d="m0 0 4 2 11 9 3 4-4-2-11-9z" fill="#FEFFFE"/>
</svg>
