<?xml version="1.0" standalone="no"?>
<!DOCTYPE svg PUBLIC "-//W3C//DTD SVG 20010904//EN"
 "http://www.w3.org/TR/2001/REC-SVG-20010904/DTD/svg10.dtd">
<svg version="1.0" xmlns="http://www.w3.org/2000/svg"
 width="48.000000pt" height="48.000000pt" viewBox="0 0 48.000000 48.000000"
 preserveAspectRatio="xMidYMid meet">

<g transform="translate(0.000000,48.000000) scale(0.100000,-0.100000)"
fill="#ffffff" stroke="none">
<path d="M91 366 c-23 -13 -23 -13 -2 -19 13 -3 21 -13 21 -27 0 -28 19 -62
31 -55 5 4 9 20 9 37 0 21 6 31 19 35 13 3 17 11 14 24 -6 23 -55 26 -92 5z"/>
<path d="M200 336 c0 -2 7 -7 16 -10 8 -3 12 -2 9 4 -6 10 -25 14 -25 6z"/>
<path d="M160 316 c0 -16 33 -28 75 -28 22 0 24 -1 8 -4 -13 -3 -20 -11 -17
-18 7 -17 -46 -28 -63 -14 -9 7 -13 7 -13 0 0 -6 5 -12 12 -14 17 -6 0 -28
-23 -28 -10 0 -19 -4 -19 -10 0 -5 14 -10 31 -10 16 0 28 4 25 9 -3 5 1 14 9
21 12 10 15 10 15 -2 0 -20 -21 -38 -44 -38 -13 0 -17 -3 -10 -10 6 -6 21 -6
39 -1 17 5 24 10 17 10 -15 1 26 59 42 60 4 1 37 -20 72 -46 52 -38 64 -52 64
-75 0 -30 17 -38 27 -12 7 19 -32 104 -47 104 -6 0 -9 4 -6 9 3 5 -8 14 -24
21 -16 7 -35 18 -41 26 -9 12 -5 14 27 15 l39 0 -53 19 c-29 11 -59 17 -67 14
-8 -4 -28 -1 -45 4 -24 9 -30 8 -30 -2z m171 -102 c9 -11 2 -9 -18 6 -18 13
-33 25 -33 27 0 8 38 -17 51 -33z"/>
</g>
</svg>
