<?xml version="1.0" standalone="no"?>
<!DOCTYPE svg PUBLIC "-//W3C//DTD SVG 20010904//EN"
 "http://www.w3.org/TR/2001/REC-SVG-20010904/DTD/svg10.dtd">
<svg version="1.0" xmlns="http://www.w3.org/2000/svg"
 width="1024.000000pt" height="1024.000000pt" viewBox="0 0 1024.000000 1024.000000"
 preserveAspectRatio="xMidYMid meet">

<g transform="translate(0.000000,1024.000000) scale(0.100000,-0.100000)"
fill="#000000" stroke="none">
<path d="M4755 9500 c-838 -58 -1598 -293 -2281 -706 -1159 -700 -1939 -1822
-2154 -3097 -41 -242 -54 -411 -54 -702 0 -293 13 -460 55 -707 212 -1258 978
-2369 2117 -3071 1571 -968 3611 -981 5201 -32 1089 649 1866 1700 2125 2875
74 333 100 574 100 935 0 291 -13 461 -54 702 -183 1078 -756 2034 -1644 2743
-739 590 -1640 949 -2621 1045 -195 19 -613 27 -790 15z m-1636 -1355 c41 -8
106 -27 145 -41 248 -90 275 -97 396 -98 63 0 139 3 168 7 52 9 52 9 52 -18 0
-15 -11 -36 -26 -50 -26 -24 -120 -65 -149 -65 -23 0 -18 -18 8 -26 12 -4 55
-7 95 -6 39 1 72 -2 72 -6 0 -31 -136 -121 -182 -122 -10 0 -18 -4 -18 -10 0
-9 260 -295 320 -351 20 -19 44 -29 81 -34 114 -14 341 -103 689 -268 41 -19
101 -45 132 -57 31 -11 71 -35 89 -51 30 -28 31 -31 15 -47 -13 -13 -33 -17
-89 -16 -82 2 -121 14 -297 91 -525 231 -781 298 -995 261 -117 -20 -191 -49
-264 -103 -175 -129 -220 -300 -161 -615 32 -172 33 -368 1 -495 -50 -205
-196 -369 -341 -383 -64 -6 -111 26 -202 140 -133 167 -214 330 -257 518 -31
133 -34 184 -35 520 l-1 315 -29 53 c-34 62 -91 121 -162 168 -38 26 -77 40
-165 59 -200 43 -212 46 -334 87 -126 41 -180 72 -170 98 9 23 66 58 162 99
95 41 168 61 335 90 l106 19 94 95 c51 52 120 112 152 132 139 88 351 137 561
131 72 -3 163 -12 204 -21z m494 -1209 c56 -14 127 -34 157 -46 151 -61 368
-125 573 -171 l229 -51 216 4 217 3 65 35 65 35 -1 58 c-1 31 -1 57 0 57 24 0
187 -58 341 -121 240 -98 556 -213 995 -360 399 -135 578 -189 967 -290 167
-43 316 -85 332 -93 62 -32 42 -67 -42 -74 -55 -4 -327 15 -1022 72 -104 9
-248 23 -320 31 -212 24 -567 52 -760 60 -71 3 -215 17 -320 30 -104 14 -262
32 -350 40 -317 31 -578 78 -1060 190 -264 62 -435 167 -509 316 -36 73 -37
164 -1 225 48 82 70 87 228 50z m600 -821 c76 -19 198 -41 272 -50 73 -8 198
-26 277 -40 310 -53 637 -90 891 -101 l148 -6 57 -52 c69 -63 414 -304 532
-371 47 -26 184 -110 305 -185 217 -135 346 -204 700 -378 277 -136 290 -147
244 -206 -27 -34 -49 -33 -176 9 -124 41 -147 44 -139 15 3 -11 8 -29 12 -40
5 -19 104 -99 155 -125 14 -8 73 -32 130 -55 57 -23 145 -67 194 -99 50 -32
135 -87 190 -121 141 -90 217 -147 232 -173 16 -29 16 -30 -7 -55 -37 -40 -67
-32 -273 68 -48 23 -90 40 -93 37 -15 -15 52 -105 161 -217 162 -166 220 -237
318 -388 106 -162 148 -238 187 -337 109 -276 145 -464 137 -720 -6 -192 -29
-293 -104 -460 -109 -243 -205 -322 -328 -271 -73 31 -80 82 -56 431 15 223
11 302 -25 502 -45 255 -140 491 -276 689 -95 137 -253 330 -256 312 -2 -9 16
-52 38 -96 49 -95 62 -158 36 -168 -28 -11 -89 13 -172 67 -82 54 -373 338
-664 647 -84 89 -151 152 -162 152 -10 0 -18 -2 -18 -5 0 -2 22 -38 49 -80 59
-89 67 -111 51 -130 -18 -22 -44 -18 -118 17 -108 52 -250 167 -394 318 -94
99 -142 143 -165 149 -18 5 -47 19 -65 32 -48 33 -248 200 -353 294 -49 44
-126 108 -171 142 -74 57 -113 94 -139 136 -9 15 -28 13 -191 -22 -190 -41
-297 -68 -326 -83 -16 -8 -18 -26 -18 -167 l0 -158 -36 -71 c-30 -61 -50 -85
-139 -161 -57 -50 -125 -114 -152 -143 -55 -60 -124 -128 -314 -312 -166 -160
-242 -247 -228 -261 6 -6 75 -10 167 -10 185 0 218 -11 266 -88 44 -72 48
-173 5 -120 -8 9 -34 25 -58 36 -37 16 -51 18 -105 8 -33 -5 -151 -13 -261
-16 -110 -3 -225 -11 -255 -17 -30 -7 -134 -52 -230 -101 -188 -96 -264 -127
-315 -127 -43 0 -48 17 -21 76 30 65 82 109 183 156 46 21 83 41 83 44 0 11
-113 -4 -165 -21 -28 -9 -91 -39 -142 -66 -71 -38 -102 -49 -137 -49 -25 0
-48 5 -51 10 -13 20 17 79 58 117 51 47 112 62 266 66 91 2 110 0 148 -20 50
-25 86 -19 91 14 3 19 -5 20 -105 27 -59 4 -159 6 -221 6 l-113 -1 15 30 c9
16 41 45 73 65 l57 36 273 0 273 0 123 123 c104 102 368 393 470 515 22 27 27
44 27 86 0 120 -85 355 -136 378 -37 17 -58 0 -66 -56 -13 -94 -65 -143 -232
-221 -52 -24 -172 -92 -267 -151 -179 -112 -270 -187 -249 -208 7 -7 62 -11
148 -11 165 0 201 -11 243 -67 51 -71 32 -120 -36 -98 -21 7 -50 9 -68 5 -18
-4 -165 -10 -328 -14 l-295 -6 -130 -64 c-189 -93 -261 -122 -319 -128 -61 -6
-71 6 -55 67 15 55 62 91 216 167 194 96 175 120 -46 57 -47 -14 -131 -47
-188 -75 -113 -55 -142 -57 -142 -10 0 58 77 133 195 194 49 25 57 25 287 29
l237 5 84 50 c45 28 134 87 197 132 63 44 139 98 169 118 95 67 162 124 172
149 8 23 -2 139 -17 185 -6 20 -34 32 -124 54 -76 19 -208 79 -277 126 -72 49
-195 148 -220 178 -33 37 -29 55 21 95 66 55 89 50 179 -33 41 -37 96 -81 123
-96 27 -15 76 -45 109 -66 78 -49 183 -92 305 -124 54 -15 130 -39 168 -54 67
-26 152 -32 152 -11 0 5 -22 35 -50 68 -27 33 -54 72 -60 87 -14 36 6 75 46
91 30 12 39 9 159 -48 126 -61 128 -61 231 -66 104 -5 105 -4 178 31 83 41
180 130 238 218 51 76 78 163 78 247 0 58 -3 72 -22 90 -35 32 -63 39 -203 52
-72 6 -169 20 -217 30 -112 24 -329 110 -405 159 -65 43 -132 109 -98 97 11
-4 82 -23 158 -41z"/>
<path d="M2646 7751 c-33 -22 -55 -56 -56 -84 0 -33 54 -77 95 -77 52 0 95 44
95 97 0 73 -70 106 -134 64z"/>
<path d="M1906 7651 c-33 -7 -56 -35 -41 -49 14 -13 440 -76 460 -69 24 10 18
54 -9 72 -37 24 -349 59 -410 46z"/>
<path d="M5964 5343 c-3 -10 -12 -30 -19 -44 -13 -24 -12 -28 13 -50 40 -37
155 -121 362 -266 244 -171 404 -291 590 -443 84 -69 183 -149 219 -178 36
-29 99 -81 140 -115 128 -108 155 -126 185 -127 23 0 66 30 66 46 0 8 -110
134 -153 177 -27 26 -86 75 -130 110 -45 34 -121 95 -168 137 -196 171 -258
222 -310 256 -30 20 -84 60 -120 90 -99 80 -295 219 -364 255 -33 18 -80 48
-104 67 -44 33 -136 83 -179 96 -16 6 -24 3 -28 -11z"/>
</g>
</svg>
