<?xml version="1.0" encoding="UTF-8"?>
<svg version="1.1" viewBox="0 0 1024 1024" width="1024" height="1024" xmlns="http://www.w3.org/2000/svg">
<path transform="translate(0)" d="m0 0h1024v1024h-1024z"/>
<path transform="translate(404,408)" d="m0 0 17 4 11 3 43 6 16 3 24 3 27 3 31 2 10 2 5 5 16 12 19 13 14 9 14 8 13 8 24 15 22 12 48 24 8 5-1 5-4 4-8-1-14-5h-6l1 6 8 7 14 8 11 4 10 5 14 9 18 11 12 9 3 3-1 7-2 1-9-1-16-8-10-4 3 7 11 12 12 12 7 8 10 13 9 14 8 13 8 15 9 27 3 13 2 15v26l-4 23-11 25-7 11-7 6-5 2-9-1-6-4-2-5v-21l1-6 1-16v-23l-4-24-4-15-6-19-12-23-7-10-6-8-12-15-3-4v-2l-4-1 3 7 7 14 1 6-1 1h-7l-12-7-11-9-43-43-4-5-13-13-5-4-3-3v-2l-4-1 4 7 6 10v5l-2 2-6-1-17-9-14-12-6-5v-2l-3-1-7-8-8-9-9-4-11-8-14-12-8-7-13-12-16-12-8-9-13 2-39 9v31l-4 10-6 9-14 12-8 7-7 8-17 17-10 9-17 17-4 5v2l4 1h26l7 2 5 4 4 8 1 5-1 3-10-5-33 1-20 1-13 3-16 8-23 11-7 2h-6l-1-5 3-6 7-8 17-8 5-3 3-2 1-3-18-1h-25l1-6 9-6 3-1 52-1 6-3 24-24 9-11 13-14 7-8 5-7v-10l-3-14-5-12-5-6-3-1-2 1-3 12-6 7-10 6-17 8-19 12-14 9-3 3h-2l-3 6 5 1h24l8 3 4 5 2 6-2 3-13-1-2 1-20 1-38 1-12 5-16 8-13 5h-10l-1-4 3-8 9-7 10-4 13-7v-1h-7l-20 6-17 8h-6l1-9 7-8 14-8 3-1 46-1 10-5 16-11 10-7 17-12 8-6 2-3v-7l-2-9v-4l-11-3-19-7-12-7-15-12-6-5-1-7 7-6 7-1 10 9 9 7 12 7 16 8 16 5 15 5 5 2 10 1-4-7-7-9v-7l5-4h6l16 8 7 3 5 1h17l11-6 12-10 8-11 4-9 1-2 1-15-2-5-5-3-33-4-16-4-22-9-10-6-8-8z" fill="#FEFEFE"/>
<path transform="translate(278,208)" d="m0 0h24l20 4 19 7 13 4 6 1h16l12-1 1 4-4 5-12 5h-3v2l18 1-2 4-7 6-10 3 4 6 9 9 7 8 13 13v2l15 2 20 7 23 10 28 13 9 4 5 4v4l-2 1h-15l-17-6-22-10-26-10-10-4-24-5h-24l-16 5-10 6-10 10-4 7-3 13v17l4 25v29l-4 18-6 11-7 9-9 7-7 3h-8l-7-4-9-10-9-12-6-10-6-15-3-9-3-13-1-4-1-70-4-10-3-4v-2h-2l-5-5-10-7-23-5-21-6-13-5-5-3 1-4 11-7 13-5 10-3 24-4 5-2 2-4 7-8 10-8 10-6 11-4z" fill="#FEFEFE"/>
<path transform="translate(344,329)" d="m0 0h12l20 5 18 7 18 6 40 9 10 1h29l13-2 10-6-1-10h7l26 10 22 9 16 6 20 7 21 8 43 14 42 13 33 9 27 7 10 4 1 5-6 2h-11l-68-5-64-6-34-3-45-3-29-3-25-3-28-3-23-4-26-5-32-7-17-5-11-5-11-7-7-7-7-11v-18l6-8z" fill="#FEFEFE"/>
<path transform="translate(598,489)" d="m0 0 5 1 13 7 10 7 15 9 13 10 11 8 10 8 9 6 10 9 10 8 9 8 16 12 11 9 7 8 5 6v5l-4 3-7-1-10-8-10-9-6-4v-2l-4-2-14-12-14-11-9-8-14-10-18-13-34-24-12-9-1-5z"/>
<path transform="translate(328,652)" d="m0 0 12 1 2 1v3l-19 5-17 9-3 1h-7l-2-1 1-7 6-7 8-4z" fill="#FEFEFE"/>
<path transform="translate(190,259)" d="m0 0h20l19 3 5 3 1 5-1 1h-13l-21-3-12-2-1-5z"/>
<path transform="translate(271,247)" d="m0 0 5 2 3 3v7l-5 6-2 1h-6l-5-4-1-7 4-5z"/>
</svg>
