<?xml version="1.0" encoding="UTF-8"?>
<svg version="1.1" viewBox="0 0 1024 1024" width="1024" height="1024" xmlns="http://www.w3.org/2000/svg">
<path transform="translate(414,412)" d="m0 0 16 4 12 2 22 3 25 4 20 2 11 2 13 1 11 2 32 1 9 4v2l3 1v2l4 2 29 20 12 8 16 9 12 8 9 5 11 7 13 8 10 5 9 5 12 6 17 8 15 8 5 3 2 2v4l-5 3h-6l-10-5-3-1h-7v7l5 5 3 2v2l5 2 10 5 12 5 10 5 8 6 10 6 9 5 14 10 3 2v6l-2 2h-6l-19-10-3-2h-7v9l5 9h-3l-8-6-3-2-7 1-3 5-2 14-3 18 2 5 7 10v7l-5 2-12-7-12-9-7-8-56-56v-2l-3-1v-2h-5l-1 4h2l6 10 1 5-1 2h-7v-2l-6-2-14-9-12-10-7-8-7-7v-2l-3-1-4-5-14-7-14-12-10-8-13-12-11-9-10-8-7-8h-8l-6 2-11 2-2 1-12 2-1 1-9 2-4 3-1 8v20l-3 9-3 6-5 6-8 7h-2l-1 3-8 7-4 5-5 5-7 6-4 5-8 7-7 7-8 7-7 7-7 9v3l33 1 8 5 5 8v4l-5-1-3-1-41 1-20 2-12 4-2 2-5 2-7 2v2l-7 3-6 3-9 4h-9l1-8h2l2-4 3-3h2v-2l6-3 7-3 9-5 2-1-1-5-35-1-3-1-1-4 3-3 6-3 54-1 5-3h2l1-3 5-4 5-6h2l1-3h2l1-3 5-4 9-11 10-11 2-3h2l2-4 7-7 3-5v-14l-2-5-2-10-6-12-4-4h-4l-4 9-2 6-5 6-13 7-10 4-13 8-10 7-5 2-10 7-3 1-2 4 1 5 2 1 30 1 7 7v6l-1 1-13-1-1 1-41 1h-15l-11 4-15 8-5 2-9 4-4 1h-7l-1-1v-7l7-7 5-3 7-3 13-6 2-4-1-1-9 1-11 3-10 4-6 3-8 3-4-1-1-3 6-8 4-2v-2l12-6 6-1h36l9-2 6-3 8-5h2v-2l4-1v-2l24-16 13-10 3-3 1-7-1-10-3-6-21-7-11-5-11-7-7-5-5-5-5-4-3-5 7-7h8l6 5v2l3 1v2l4 2 9 6 10 5v2l6 2 13 5 9 3 8 2 8 3 2 1h14v-3l-7-8-3-5v-5l3-3 5-1 22 10 6 2h20l11-6h2l1-3 7-6h2l2-4 4-5 6-11 2-12v-7l-2-6-7-4-18-1-20-3-10-4-9-3-9-4-10-5-3-3zm184 77-4 4v6l5 5 9 6h2l1 3 16 11 13 9 4 3h2v2l7 4h2v2l14 10 9 7h2l1 3 6 4 4 4 10 8h2l1 3 11 9 10 8 11 10 7 4h6l4-3v-6l-10-11-1-2h-2l-2-4-12-10-11-8-8-7-11-9-4-2v-2l-5-4h-2v-2l-9-6-9-7-5-4h-2v-2l-9-6-14-10-15-9-7-5h-3v-2l-8-4z" fill="#F9F9F9"/>
<path transform="translate(279,209)" d="m0 0h20l20 4 10 3 22 8 10 1h26l-1 4-16 8-1 3 12 2 2 1-1 3h-2v2l-12 6 3 5 9 9v2h2l7 8 9 10 4 3 10 3 9 2 10 3 9 4 15 6 7 4 13 5 9 5 13 5 3 4-1 3h-17l-2-2-7-2-14-6-10-5-12-4-10-5-21-7-7-1-4-2-26-1-14 1-16 7-10 9-7 8-3 8-2 11v10l2 10 2 17 1 3v31l-2 5-1 8-7 13-7 9-9 7-10 3-5-1-6-4-9-10-9-12-1-5h-2l-7-16-3-8-3-12-2-16v-56l-3-14-8-11-8-7-8-4-12-3-20-4-19-7-4-2-1-5 5-4 10-5 14-4 24-4 8-6 5-6 14-11 8-5 7-3 11-3zm-11 37-6 4-3 3-1 6 5 7 8 1 5-2v-2h2l1-2v-11l-5-4zm-80 12-3 3v5l13 3 21 3 3 1h12l2-6-3-5-20-4z" fill="#FCFCFC"/>
<path transform="translate(347,330)" d="m0 0 14 1 12 3 9 4 20 7 13 4 12 3 11 2 19 4h40l11-4 6-4 1-1 1-7 5-1 9 3 12 5 11 4 9 4 13 5 15 6 13 4 24 9 15 5 10 3 11 4 17 5 24 8 9 2 18 5 10 3 7 1 4 2 9 2 12 3 6 3v4h-38l-5-2-34-1-12-2-26-2-7-1-20-1-9-2-11-1-28-1-8-2-34-1-12-2-17-2-5-1-22-1-16-3-16-2-13-2-6-2-9-1-5-2-12-1-3-2-25-5-11-3-10-5-9-5-4-3v-2l-4-2-8-10-3-8v-7l4-10 3-3z" fill="#FBFBFB"/>
<path transform="translate(810,644)" d="m0 0 2 1v2l4 1 5 4 7 10 4 7 6 9 9 15 4 9v3h2l1 9h2l2 11 1 2 1 13 3 4 1 23v22l-4 16-6 15-4 8-6 10-7 6-10 1-5-3-3-5v-21l1-38-1-18-2-9-1-12-2-4-2-9-1-1-2-10-8-16-8-13-5-10 1-7 4-2 8 5 7 6v2h10l5 5 3 8 4 10 5 6 5 12 3 2 1-5-4-14-8-16-4-5-5-5-4-13-6-10-3-7-1-3z" fill="#C8C8C8"/>
<path transform="translate(823,751)" d="m0 0 2 1 3 19 1 11 1 24 5 16 6 6 1 6-4 6-4 3h-8l-5-5v-45l1-3v-38z" fill="#FEFEFE"/>
<path transform="translate(784,602)" d="m0 0h6l2 2-7 1v9l5 9h-3l-8-6-3-2-7 1-3 5-2 14-3 18 2 5 4 5-1 2-3-3v-2h-2l-4-9-2-7-1-2v-14l1-3h2l2-5 7-12 3-2 11-1z" fill="#C8C8C8"/>
<path transform="translate(310,654)" d="m0 0h10l12 2 1 2-10 3-7 4-6 1v2l-7 3h-7l-1-5 4-6 6-4z" fill="#F7F7F7"/>
<path transform="translate(353,225)" d="m0 0h34l-1 4-16 8-1 3 12 2 2 1-1 3h-2v2l-13 6 2-4 9-4 1-1-9-3-3-2 1-4 9-6 6-1-1-2-2 1h-22l-5-2z" fill="#C8C8C8"/>
<path transform="translate(509,353)" d="m0 0 3 1-5 3-9 3h-43l-14-3v-1h8l8 2h40l11-4z" fill="#C8C8C8"/>
<path transform="translate(368,297)" d="m0 0 25 1 12 4v1h-6l-4-2-26-1h-14v-1z" fill="#C8C8C8"/>
<path transform="translate(266,245)" d="m0 0h9l5 4 1 9-3 7-2 2-10 1v-1l9-2 1-2h2v-13l-4-3h-6l-6 4-3 5-2 2 1-6 5-5z" fill="#C8C8C8"/>
<path transform="translate(229,228)" d="m0 0 2 1-17 17-9 3-11 2h-9v-1l24-4 8-6 5-6z" fill="#C8C8C8"/>
<path transform="translate(312,437)" d="m0 0 1 3-8 10-9 7-10 3-5-1-6-4-1-2 4 2 7 2 10-2 6-5h2l1-3h2l2-4z" fill="#C8C8C8"/>
<path transform="translate(725,600)" d="m0 0 5 3v2l4 2 9 6h6l3-2v-6l-2-4 3 1 2 5-1 5-5 4-8-1-9-6-4-4v-2l-3-1z" fill="#C8C8C8"/>
<path transform="translate(449,420)" d="m0 0h10l30 5 11 1v1h-15l-16-3-11-1-9-2z" fill="#C8C8C8"/>
<path transform="translate(319,374)" d="m0 0h1l2 10v31l-2 5h-1l1-15v-11l-1-9z" fill="#C8C8C8"/>
<path transform="translate(487,511)" d="m0 0 4 1-6 4-1 8v20l-2 4v-32l1-2h2v-2z" fill="#C8C8C8"/>
<path transform="translate(690,425)" d="m0 0h13l33 2v1h-34l-12-2z" fill="#C8C8C8"/>
<path transform="translate(279,209)" d="m0 0h20l10 2v1h-40v-1z" fill="#C8C8C8"/>
<path transform="translate(310,654)" d="m0 0h10l12 2 1 2-12 3 2-3-5-1h-13l4-2z" fill="#C8C8C8"/>
<path transform="translate(549,433)" d="m0 0h27l9 4-1 2-3-2-6-1-19-1-7-1z" fill="#C8C8C8"/>
<path transform="translate(314,641)" d="m0 0 3 1h-2v4l4 1 31 1v1h-35l-3-1-1-4z" fill="#C8C8C8"/>
<path transform="translate(190,255)" d="m0 0 18 1 2 2-22 1-2 2-1 5h-1v-6l4-4z" fill="#C8C8C8"/>
<path transform="translate(344,331)" d="m0 0 3 1-4 2-2 5-1 17-2-2-1-3v-7l4-10z" fill="#C8C8C8"/>
<path transform="translate(213,258)" d="m0 0h10l11 3 4 5-1 6h-3l1-5-2-4-20-4z" fill="#C8C8C8"/>
<path transform="translate(492,437)" d="m0 0 5 1 6 6v17l-2 6h-1v-7l1-5v-7l-2-6-7-4z" fill="#C8C8C8"/>
<path transform="translate(350,649)" d="m0 0 3 1v6l-10 6-10 5-6 2v-2l6-3 7-3 9-5 2-1z" fill="#C8C8C8"/>
<path transform="translate(711,629)" d="m0 0 4 2 6 5 4 5 3 2v2l3 1 3 4-1 2-22-22z" fill="#C8C8C8"/>
<path transform="translate(343,303)" d="m0 0 4 1-11 6-13 13-1-3 3-1 1-3 8-7z" fill="#C8C8C8"/>
<path transform="translate(535,412)" d="m0 0h13l18 2v1h-19l-12-2z" fill="#C8C8C8"/>
<path transform="translate(367,604)" d="m0 0h10l3 1 3-1-1 3-13-1-1 1h-17v-1l14-1z" fill="#C8C8C8"/>
<path transform="translate(757,542)" d="m0 0 4 1 3 3v4l-5 3h-6l-6-3 4-1 6 2 4-2v-4l-4-2z" fill="#C8C8C8"/>
<path transform="translate(736,428)" d="m0 0 16 1 10 1v1h-21l-5-2z" fill="#C8C8C8"/>
<path transform="translate(164,257)" d="m0 0 3 1-7 5h-2v4l7 2 1 2-5-1-4-2-1-5 5-4z" fill="#C8C8C8"/>
<path transform="translate(424,309)" d="m0 0 6 1 12 5 7 3-4 1-9-4-12-5z" fill="#C8C8C8"/>
<path transform="translate(299,660)" d="m0 0 2 1-4 6 5 1h5l-4 3h-7l-1-5z" fill="#C8C8C8"/>
<path transform="translate(378,559)" d="m0 0 3 1-16 10-2 2-4-1 13-8z" fill="#C8C8C8"/>
<path transform="translate(734,543)" d="m0 0 5 2v1l-6 1v7l2 4-3-1-2-4v-6z" fill="#C8C8C8"/>
<path transform="translate(495,328)" d="m0 0 4 2 1 2-1 3h-17l-2-3 4 1h14l-3-3z" fill="#C8C8C8"/>
<path transform="translate(318,329)" d="m0 0 1 4-3 20h-1v-10l1-11z" fill="#C8C8C8"/>
<path transform="translate(524,430)" d="m0 0h9l11 2v1h-12l-8-2z" fill="#C8C8C8"/>
<path transform="translate(205,270)" d="m0 0h10l7 2v1h-9l-8-2z" fill="#C8C8C8"/>
<path transform="translate(244,399)" d="m0 0 3 4 3 9 1 7-2-3-5-12z" fill="#C8C8C8"/>
<path transform="translate(767,665)" d="m0 0 3 3v7l-5 2-4-3h6l1-4z" fill="#C8C8C8"/>
<path transform="translate(433,425)" d="m0 0 7 1 10 4v1h-5l-3-2-7-2z" fill="#C8C8C8"/>
<path transform="translate(368,661)" d="m0 0h6l-4 2-9 4-5 1 5-4z" fill="#C8C8C8"/>
<path transform="translate(423,610)" d="m0 0 2 1-13 12v-3l4-4h2l1-3z" fill="#C8C8C8"/>
<path transform="translate(737,587)" d="m0 0 4 2v2h2l7 8v2l-3-1-5-6v-2h-2z" fill="#C8C8C8"/>
<path transform="translate(770,577)" d="m0 0 4 1 9 6 3 3-4-1-12-8z" fill="#C8C8C8"/>
<path transform="translate(316,354)" d="m0 0h1l2 10v7l-2-3-1-3z" fill="#C8C8C8"/>
<path transform="translate(411,411)" d="m0 0" fill="#C8C8C8"/>
</svg>
